<?xml version="1.0" standalone="no"?>
<!DOCTYPE svg PUBLIC "-//W3C//DTD SVG 20010904//EN"
 "http://www.w3.org/TR/2001/REC-SVG-20010904/DTD/svg10.dtd">
<svg version="1.0" xmlns="http://www.w3.org/2000/svg"
 width="260.000000pt" height="260.000000pt" viewBox="0 0 260.000000 260.000000"
 preserveAspectRatio="xMidYMid meet">
<metadata>
Created by potrace 1.11, written by Peter Selinger 2001-2013
</metadata>
<g transform="translate(0.000000,260.000000) scale(0.100000,-0.100000)"
fill="#000000" stroke="none">
<path d="M0 1300 l0 -1300 1300 0 1300 0 0 1300 0 1300 -1300 0 -1300 0 0
-1300z m2480 1191 c3 0 6 -538 5 -1193 l0 -1193 -587 0 c-322 0 -584 2 -582 4
3 3 17 7 32 8 96 12 261 158 396 349 31 43 61 84 66 91 6 7 10 16 10 21 0 4 6
14 13 20 6 7 12 16 13 20 0 4 12 31 26 59 14 29 38 99 53 155 60 225 22 424
-108 560 -86 90 -163 134 -277 157 -54 11 -151 15 -180 8 -8 -2 -33 -7 -55
-12 -147 -29 -278 -152 -315 -295 -49 -192 30 -363 209 -450 l71 -35 -27 -40
c-16 -22 -32 -45 -38 -51 -79 -88 -134 -172 -151 -230 -22 -75 -23 -98 -8
-155 23 -93 71 -140 168 -169 47 -15 21 -16 -379 -14 -237 1 -432 2 -435 3 -8
2 -7 2375 1 2381 6 4 2062 5 2079 1z"/>
<path d="M1310 2459 c-162 -42 -274 -144 -318 -293 -66 -219 77 -437 326 -498
217 -52 450 32 557 202 63 99 67 254 10 368 -26 50 -108 134 -166 169 -111 66
-274 87 -409 52z"/>
</g>
</svg>
