<?xml version="1.0" standalone="no"?>
<!DOCTYPE svg PUBLIC "-//W3C//DTD SVG 20010904//EN"
 "http://www.w3.org/TR/2001/REC-SVG-20010904/DTD/svg10.dtd">
<svg version="1.0" xmlns="http://www.w3.org/2000/svg"
 width="260.000000pt" height="260.000000pt" viewBox="0 0 260.000000 260.000000"
 preserveAspectRatio="xMidYMid meet">
<metadata>
Created by potrace 1.11, written by Peter Selinger 2001-2013
</metadata>
<g transform="translate(0.000000,260.000000) scale(0.100000,-0.100000)"
fill="#000000" stroke="none">
<path d="M1500 2564 c-30 -7 -56 -13 -57 -13 -2 -1 -17 -4 -33 -8 -17 -3 -33
-10 -36 -14 -3 -5 -13 -9 -22 -9 -19 0 -136 -75 -174 -112 -63 -60 -123 -159
-133 -219 -3 -18 -9 -37 -12 -42 -10 -17 -3 -121 13 -176 47 -162 222 -273
430 -273 40 0 81 3 92 6 11 4 30 9 43 11 76 15 126 37 212 93 178 118 262 309
211 483 -34 117 -147 229 -256 255 -5 1 -10 3 -13 4 -3 1 -8 3 -12 4 -61 15
-83 18 -136 20 -34 2 -87 -3 -117 -10z"/>
<path d="M1226 1560 c-102 -27 -188 -75 -259 -145 -96 -94 -136 -176 -153
-316 -7 -56 15 -143 51 -204 25 -44 115 -125 138 -125 7 0 20 -7 31 -15 18
-13 16 -17 -40 -76 -33 -34 -90 -91 -127 -127 -86 -83 -136 -159 -157 -237
-65 -244 191 -377 431 -223 146 93 367 311 505 495 22 31 98 155 99 163 1 3 8
19 17 35 21 42 55 148 71 226 26 124 6 247 -57 351 -55 92 -138 158 -240 191
-86 27 -222 30 -310 7z"/>
</g>
</svg>
